{"title":"Ek Thi Daayan 2013 Hindi DVDRip ESubs XviD AC3 5.1-K@rtik","uid":8548845,"size":699917591,"categoryP":"video","categoryS":"movies","magnet":"?xt=urn:btih:26e4887c77c900d7c158f453c1f3e14c02174a68&amp;dn=Ek+Thi+Daayan+2013+Hindi+DVDRip+ESubs+XviD+AC3+5.1-K%40rtik&amp;tr=udp%3A%2F%2Ftracker.openbittorrent.com%3A80&amp;tr=udp%3A%2F%2Fopen.demonii.com%3A1337&amp;tr=udp%3A%2F%2Ftracker.coppersurfer.tk%3A6969&amp;tr=udp%3A%2F%2Fexodus.desync.com%3A6969","seeders":5,"leechers":0,"uploader":"HeroMaster","files":-1,"time":1370595063,"description":"Ek Thi Daayan 2013 Hindi DVDRip ESubs XviD AC3 5.1-K@rtik\n\n\nIMDB: http://www.imdb.com/title/tt2406676/\n\nLanguage: Hindi\n\nSubs: English \n\nSample Included\n\n\nRip Information:\n\nFormat                                   : AVI\nFormat/Info                              : Audio Video Interleave\nFile size                                : 659 MiB\nDuration                                 : 2h 7mn\nOverall bit rate                         : 723 Kbps\n\n\nVideo:\n\nCode:\nFormat                                   : MPEG-4 Visual\nFormat profile                           : Advanced Simple@L5\nFormat settings, BVOP                    : 2\nFormat settings, QPel                    : No\nFormat settings, GMC                     : No warppoints\nFormat settings, Matrix                  : Default (MPEG)\nCodec ID                                 : XVID\nCodec ID/Hint                            : XviD\nDuration                                 : 2h 7mn\nBit rate                                 : 587 Kbps\nWidth                                    : 688 pixels\nHeight                                   : 288 pixels\nDisplay aspect ratio                     : 2.40:1\nFrame rate                               : 29.970 fps\nColor space                              : YUV\nChroma subsampling                       : 4:2:0\nBit depth                                : 8 bits\nScan type                                : Progressive\nCompression mode                         : Lossy\nBits/(Pixel*Frame)                       : 0.099\nStream size                              : 534 MiB (81%)\nWriting library                          : XviD 1.2.1 (UTC 2008-12-04)\n\n\nAudio:\n\nCode:\nFormat                                   : AC-3\nFormat/Info                              : Audio Coding 3\nMode extension                           : CM (complete main)\nFormat settings, Endianness              : Big\nCodec ID                                 : 2000\nDuration                                 : 2h 7mn\nBit rate mode                            : Constant\nBit rate                                 : 128 Kbps\nChannel(s)                               : 6 channels\nChannel positions                        : Front: L C R, Side: L R, LFE\nSampling rate                            : 48.0 KHz\nBit depth                                : 16 bits\nCompression mode                         : Lossy\nStream size                              : 117 MiB (18%)\nAlignment                                : Aligned on interleaves\nInterleave, duration                     : 64 ms (1.92 video frames)\nInterleave, preload duration             : 192 ms\nTitle                                    : K@rtik\n\n\n==Team EXD Exclusive==\n\n\n&quot;K@rtik Exclusive&quot;\n\n\nPoster:\n\n &lt;a href=&quot;\nhttp://i.imgur.com/wHRiygH.jpg&quot; rel=&quot;nofollow&quot; target=&quot;_NEW&quot;&gt;\nhttp://i.imgur.com/wHRiygH.jpg&lt;/a&gt;\n\n\nScreenshots:\n\n &lt;a href=&quot;\nhttp://i.imgur.com/dHh615T.png&quot; rel=&quot;nofollow&quot; target=&quot;_NEW&quot;&gt;\nhttp://i.imgur.com/dHh615T.png&lt;/a&gt;\n\n &lt;a href=&quot;\nhttp://i.imgur.com/stm3NCl.png&quot; rel=&quot;nofollow&quot; target=&quot;_NEW&quot;&gt;\nhttp://i.imgur.com/stm3NCl.png&lt;/a&gt;\n\n &lt;a href=&quot;\nhttp://i.imgur.com/wyNEwDm.png&quot; rel=&quot;nofollow&quot; target=&quot;_NEW&quot;&gt;\nhttp://i.imgur.com/wyNEwDm.png&lt;/a&gt;\n\n\nSEED AND ENJOY!","torrent":{"xt":"urn:btih:26e4887c77c900d7c158f453c1f3e14c02174a68","amp;dn":"Ek+Thi+Daayan+2013+Hindi+DVDRip+ESubs+XviD+AC3+5.1-K%40rtik","amp;tr":["udp%3A%2F%2Ftracker.openbittorrent.com%3A80","udp%3A%2F%2Fopen.demonii.com%3A1337","udp%3A%2F%2Ftracker.coppersurfer.tk%3A6969","udp%3A%2F%2Fexodus.desync.com%3A6969"],"infoHash":"26e4887c77c900d7c158f453c1f3e14c02174a68","infoHashBuffer":{"type":"Buffer","data":[38,228,136,124,119,201,0,215,193,88,244,83,193,243,225,76,2,23,74,104]},"announce":[],"urlList":[]}}